{
    "asset" : {
        "generator" : "Khronos glTF Blender I/O v1.6.16",
        "version" : "2.0"
    },
    "scene" : 0,
    "scenes" : [
        {
            "name" : "Scene",
            "nodes" : [
                0,
                1,
                2,
                3,
                4
            ]
        }
    ],
    "nodes" : [
        {
            "name" : "Light",
            "rotation" : [
                0.16907575726509094,
                0.7558803558349609,
                -0.27217137813568115,
                0.570947527885437
            ],
            "translation" : [
                4.076245307922363,
                5.903861999511719,
                -1.0054539442062378
            ]
        },
        {
            "name" : "Camera",
            "rotation" : [
                0.483536034822464,
                0.33687159419059753,
                -0.20870360732078552,
                0.7804827094078064
            ],
            "translation" : [
                7.358891487121582,
                4.958309173583984,
                6.925790786743164
            ]
        },
        {
            "mesh" : 0,
            "name" : "F_15_C",
            "rotation" : [
                0.7071068286895752,
                0,
                0,
                0.7071067094802856
            ]
        },
        {
            "mesh" : 1,
            "name" : "GLass",
            "rotation" : [
                0.7071068286895752,
                0,
                0,
                0.7071067094802856
            ]
        },
        {
            "mesh" : 2,
            "name" : "TAnks",
            "rotation" : [
                0.7071068286895752,
                0,
                0,
                0.7071067094802856
            ]
        }
    ],
    "materials" : [
        {
            "doubleSided" : true,
            "name" : "F_15C",
            "pbrMetallicRoughness" : {
                "baseColorTexture" : {
                    "index" : 0
                },
                "metallicFactor" : 0,
                "roughnessFactor" : 0.6766191720962524
            }
        },
        {
            "doubleSided" : true,
            "name" : "Glass",
            "pbrMetallicRoughness" : {
                "baseColorFactor" : [
                    0.800000011920929,
                    0.800000011920929,
                    0.800000011920929,
                    0.26404500007629395
                ],
                "metallicFactor" : 0,
                "roughnessFactor" : 0.6766191720962524
            }
        }
    ],
    "meshes" : [
        {
            "name" : "F_15_C",
            "primitives" : [
                {
                    "attributes" : {
                        "POSITION" : 0,
                        "NORMAL" : 1,
                        "TEXCOORD_0" : 2
                    },
                    "indices" : 3,
                    "material" : 0
                }
            ]
        },
        {
            "name" : "GLass",
            "primitives" : [
                {
                    "attributes" : {
                        "POSITION" : 4,
                        "NORMAL" : 5,
                        "TEXCOORD_0" : 6
                    },
                    "indices" : 7,
                    "material" : 1
                }
            ]
        },
        {
            "name" : "TAnks",
            "primitives" : [
                {
                    "attributes" : {
                        "POSITION" : 8,
                        "NORMAL" : 9,
                        "TEXCOORD_0" : 10
                    },
                    "indices" : 11,
                    "material" : 0
                }
            ]
        }
    ],
    "textures" : [
        {
            "sampler" : 0,
            "source" : 0
        }
    ],
    "images" : [
        {
            "bufferView" : 4,
            "mimeType" : "image/jpeg",
            "name" : "F 15"
        }
    ],
    "accessors" : [
        {
            "bufferView" : 0,
            "componentType" : 5126,
            "count" : 3060,
            "max" : [
                3.5059430599212646,
                6.743843078613281,
                0.2635680139064789
            ],
            "min" : [
                -3.5059430599212646,
                -3.998171091079712,
                -2.0985360145568848
            ],
            "type" : "VEC3"
        },
        {
            "bufferView" : 1,
            "componentType" : 5126,
            "count" : 3060,
            "type" : "VEC3"
        },
        {
            "bufferView" : 2,
            "componentType" : 5126,
            "count" : 3060,
            "type" : "VEC2"
        },
        {
            "bufferView" : 3,
            "componentType" : 5123,
            "count" : 7176,
            "type" : "SCALAR"
        },
        {
            "bufferView" : 5,
            "componentType" : 5126,
            "count" : 95,
            "max" : [
                0.2644740045070648,
                4.8905768394470215,
                -0.5547029972076416
            ],
            "min" : [
                -0.2644740045070648,
                2.7229440212249756,
                -1.0410219430923462
            ],
            "type" : "VEC3"
        },
        {
            "bufferView" : 6,
            "componentType" : 5126,
            "count" : 95,
            "type" : "VEC3"
        },
        {
            "bufferView" : 7,
            "componentType" : 5126,
            "count" : 95,
            "type" : "VEC2"
        },
        {
            "bufferView" : 8,
            "componentType" : 5123,
            "count" : 252,
            "type" : "SCALAR"
        },
        {
            "bufferView" : 9,
            "componentType" : 5126,
            "count" : 264,
            "max" : [
                1.7147819995880127,
                2.072261095046997,
                0.5111439824104309
            ],
            "min" : [
                -1.7147819995880127,
                -1.2007980346679688,
                -0.16569800674915314
            ],
            "type" : "VEC3"
        },
        {
            "bufferView" : 10,
            "componentType" : 5126,
            "count" : 264,
            "type" : "VEC3"
        },
        {
            "bufferView" : 11,
            "componentType" : 5126,
            "count" : 264,
            "type" : "VEC2"
        },
        {
            "bufferView" : 12,
            "componentType" : 5123,
            "count" : 1152,
            "type" : "SCALAR"
        }
    ],
    "bufferViews" : [
        {
            "buffer" : 0,
            "byteLength" : 36720,
            "byteOffset" : 0
        },
        {
            "buffer" : 0,
            "byteLength" : 36720,
            "byteOffset" : 36720
        },
        {
            "buffer" : 0,
            "byteLength" : 24480,
            "byteOffset" : 73440
        },
        {
            "buffer" : 0,
            "byteLength" : 14352,
            "byteOffset" : 97920
        },
        {
            "buffer" : 0,
            "byteLength" : 460052,
            "byteOffset" : 112272
        },
        {
            "buffer" : 0,
            "byteLength" : 1140,
            "byteOffset" : 572324
        },
        {
            "buffer" : 0,
            "byteLength" : 1140,
            "byteOffset" : 573464
        },
        {
            "buffer" : 0,
            "byteLength" : 760,
            "byteOffset" : 574604
        },
        {
            "buffer" : 0,
            "byteLength" : 504,
            "byteOffset" : 575364
        },
        {
            "buffer" : 0,
            "byteLength" : 3168,
            "byteOffset" : 575868
        },
        {
            "buffer" : 0,
            "byteLength" : 3168,
            "byteOffset" : 579036
        },
        {
            "buffer" : 0,
            "byteLength" : 2112,
            "byteOffset" : 582204
        },
        {
            "buffer" : 0,
            "byteLength" : 2304,
            "byteOffset" : 584316
        }
    ],
    "samplers" : [
        {
            "magFilter" : 9729,
            "minFilter" : 9987
        }
    ],
    "buffers" : [
        {
            "byteLength" : 586620,
            "uri" : "data:application/octet-stream;base64,"
        }
    ]
}
